<svg xmlns="http://www.w3.org/2000/svg" version="1.1" xmlns:xlink="http://www.w3.org/1999/xlink" xmlns:svgjs="http://svgjs.dev/svgjs" width="1000" height="1000" viewBox="0 0 1000 1000"><rect width="1000" height="1000" fill="#000000"></rect><g transform="matrix(0.7,0,0,0.7,149.57576086582208,444.08032406509676)"><svg viewBox="0 0 396 63" data-background-color="#ffffff" preserveAspectRatio="xMidYMid meet" height="159" width="1000" xmlns="http://www.w3.org/2000/svg" xmlns:xlink="http://www.w3.org/1999/xlink"><g id="tight-bounds" transform="matrix(1,0,0,1,0.23999813876349663,0.15264675560561614)"><svg viewBox="0 0 395.52 62.69470648878875" height="62.69470648878875" width="395.52"><g><svg viewBox="0 0 479.302694255602 75.97527744650239" height="62.69470648878875" width="395.52"><g transform="matrix(1,0,0,1,83.78269425560201,21.451826507906105)"><svg viewBox="0 0 395.52 33.07162443069018" height="33.07162443069018" width="395.52"><g><svg viewBox="0 0 395.52 33.07162443069018" height="33.07162443069018" width="395.52"><g><svg viewBox="0 0 395.52 33.07162443069018" height="33.07162443069018" width="395.52"><g transform="matrix(1,0,0,1,0,0)"><svg width="395.52" viewBox="1.5 -35.5 428.1199951171875 35.79999923706055" height="33.07162443069018" data-palette-color="#f3a83c"><path d="M17.3 0.3L17.3 0.3Q9.65 0.3 5.58-4.53 1.5-9.35 1.5-17.6 1.5-25.85 5.83-30.65 10.15-35.45 17.85-35.45L17.85-35.45Q22.05-35.45 26.2-34L26.2-34 24.8-28.4Q21.75-29.7 17.6-29.7 13.45-29.7 11.1-26.55 8.75-23.4 8.75-17.85 8.75-12.3 10.95-8.88 13.15-5.45 17.15-5.45L17.15-5.45Q20.15-5.45 25.7-7.4L25.7-7.4 27.2-2.3Q22.65 0.3 17.3 0.3ZM58.85-35L58.85 0 51.6 0 51.6-15.3 40-15.3 40 0 32.75 0 32.75-35 40-35 40-21.05 51.6-21.05 51.6-35 58.85-35ZM81.1-35L91.7 0 84.5 0 82-8.55 71.45-8.55 69 0 62.05 0 72.55-35 81.1-35ZM72.9-14.3L80.65-14.3 76.8-28.7 72.9-14.3ZM126.39-35L126.39 0 119.14 0 119.14-21.7 112.89-8.2 106.59-8.2 100.34-21.65 100.34 0 93.14 0 93.14-35 100.84-35 109.79-16.25 119.14-35 126.39-35ZM141.59-13.45L141.59-13.45 138.99-13.45 138.99 0 131.74 0 131.74-35 142.74-35Q148.89-35 151.64-32.38 154.39-29.75 154.39-24.28 154.39-18.8 151.02-16.13 147.64-13.45 141.59-13.45ZM141.04-29.3L141.04-29.3 138.99-29.3 138.99-19.15 139.79-19.15Q143.59-19.15 145.37-20.3 147.14-21.45 147.14-24.18 147.14-26.9 145.69-28.1 144.24-29.3 141.04-29.3ZM165.29-35L165.29 0 158.04 0 158.04-35 165.29-35ZM184.24 0.25L184.24 0.25Q176.89 0.25 173.14-4.83 169.39-9.9 169.39-17.75 169.39-25.6 173.16-30.55 176.94-35.5 184.26-35.5 191.59-35.5 195.39-30.55 199.19-25.6 199.19-17.75L199.19-17.75Q199.19-7 192.64-2.25L192.64-2.25Q189.19 0.25 184.24 0.25ZM184.34-29.75L184.34-29.75Q181.69-29.75 179.89-27.9L179.89-27.9Q176.69-24.7 176.69-17.75L176.69-17.75Q176.69-12.5 178.64-9.03 180.59-5.55 184.36-5.55 188.14-5.55 190.04-9.08 191.94-12.6 191.94-17.68 191.94-22.75 189.91-26.25 187.89-29.75 184.34-29.75ZM230.88-35L230.88 0.05 223.28 0.05 211.43-21.5 211.43 0 204.03 0 204.03-35 211.43-35 223.63-12.4 223.63-35 230.88-35ZM281.98-35L281.98 0 274.73 0 274.73-21.7 268.48-8.2 262.18-8.2 255.93-21.65 255.93 0 248.73 0 248.73-35 256.43-35 265.38-16.25 274.73-35 281.98-35ZM299.93 0.25L299.93 0.25Q292.58 0.25 288.83-4.83 285.08-9.9 285.08-17.75 285.08-25.6 288.85-30.55 292.63-35.5 299.95-35.5 307.28-35.5 311.08-30.55 314.88-25.6 314.88-17.75L314.88-17.75Q314.88-7 308.33-2.25L308.33-2.25Q304.88 0.25 299.93 0.25ZM300.03-29.75L300.03-29.75Q297.38-29.75 295.58-27.9L295.58-27.9Q292.38-24.7 292.38-17.75L292.38-17.75Q292.38-12.5 294.33-9.03 296.28-5.55 300.05-5.55 303.83-5.55 305.73-9.08 307.63-12.6 307.63-17.68 307.63-22.75 305.6-26.25 303.58-29.75 300.03-29.75ZM332.42 0L325.22 0 325.22-29.15 317.17-29.15 317.17-35 340.37-35 340.37-29.15 332.42-29.15 332.42 0ZM357.52 0.25L357.52 0.25Q350.17 0.25 346.42-4.83 342.67-9.9 342.67-17.75 342.67-25.6 346.45-30.55 350.22-35.5 357.55-35.5 364.87-35.5 368.67-30.55 372.47-25.6 372.47-17.75L372.47-17.75Q372.47-7 365.92-2.25L365.92-2.25Q362.47 0.25 357.52 0.25ZM357.62-29.75L357.62-29.75Q354.97-29.75 353.17-27.9L353.17-27.9Q349.97-24.7 349.97-17.75L349.97-17.75Q349.97-12.5 351.92-9.03 353.87-5.55 357.65-5.55 361.42-5.55 363.32-9.08 365.22-12.6 365.22-17.68 365.22-22.75 363.2-26.25 361.17-29.75 357.62-29.75ZM385.17-15.2L385.17-15.2 384.57-15.2 384.57-0.05 377.32-0.05 377.32-35.05 388.42-35.05Q394.07-35.05 396.87-32.58 399.67-30.1 399.67-25.5L399.67-25.5Q399.67-22.7 397.72-20.38 395.77-18.05 392.97-17.7L392.97-17.7Q394.97-17.15 396.07-15.88 397.17-14.6 398.37-11.75L398.37-11.75 403.32-0.05 395.87-0.05 391.02-11.25Q389.97-13.65 388.79-14.43 387.62-15.2 385.17-15.2ZM388.22-29.35L388.22-29.35 384.57-29.35 384.57-20.9 387.72-20.9Q389.72-20.9 390.84-22.2 391.97-23.5 391.97-25.4L391.97-25.4Q391.97-29.35 388.22-29.35ZM427.06-33.75L427.06-33.75 425.87-27.9 422.77-28.75Q419.47-29.5 417.02-29.5L417.02-29.5Q413.62-29.5 413.62-26.25L413.62-26.25Q413.62-25 414.79-23.98 415.97-22.95 417.77-22.28 419.56-21.6 421.62-20.6 423.67-19.6 425.47-18.45 427.27-17.3 428.44-15.3 429.62-13.3 429.62-10.7L429.62-10.7Q429.62-5.55 426.29-2.63 422.97 0.3 416.92 0.3L416.92 0.3Q413.81 0.3 410.74-0.53 407.67-1.35 405.67-2.45L405.67-2.45 407.81-7.8Q412.42-5.7 416.92-5.7L416.92-5.7Q419.47-5.7 420.92-6.88 422.37-8.05 422.37-9.9 422.37-11.75 420.72-12.98 419.06-14.2 416.72-15.18 414.37-16.15 412.02-17.38 409.67-18.6 408.02-20.83 406.37-23.05 406.37-26.1L406.37-26.1Q406.37-30.65 409.22-33.08 412.06-35.5 416.89-35.5 421.72-35.5 427.06-33.75Z" opacity="1" transform="matrix(1,0,0,1,0,0)" fill="#ffffff" class="undefined-text-0" data-fill-palette-color="primary" id="text-0"></path></svg></g></svg></g></svg></g></svg></g><g><svg viewBox="0 0 75.97527744650239 75.97527744650239" height="75.97527744650239" width="75.97527744650239"><g><svg></svg></g><g id="icon-0"><svg viewBox="0 0 75.97527744650239 75.97527744650239" height="75.97527744650239" width="75.97527744650239"><g><rect width="69.08122449302347" height="69.08122449302347" x="3.4470264767394596" y="3.4470264767394596" fill="#ffffff" data-fill-palette-color="accent"></rect><rect width="69.08122449302347" height="69.08122449302347" x="6.894052953478919" y="0" fill="#ffffff" opacity="0.5" data-fill-palette-color="accent"></rect></g><g transform="matrix(1,0,0,1,9.848647076398457,18.446671109139743)"><svg viewBox="0 0 56.277983293705475 39.0819352282229" height="39.0819352282229" width="56.277983293705475"><g><svg xmlns="http://www.w3.org/2000/svg" xmlns:xlink="http://www.w3.org/1999/xlink" version="1.1" x="0" y="0" viewBox="5 18.799999237060547 90 62.500003814697266" enable-background="new 0 0 100 100" xml:space="preserve" height="39.0819352282229" width="56.277983293705475" class="icon-a-0" data-fill-palette-color="background" id="a-0"><path d="M50 18.8c-16.8 0-30.6 13.3-31.2 30H5v2.5h13.8c0.7 16.7 14.4 30 31.2 30s30.6-13.3 31.2-30H95v-2.5H81.2C80.6 32.1 66.8 18.8 50 18.8zM50 78.8c-15.9 0-28.8-12.9-28.8-28.8S34.1 21.3 50 21.3 78.8 34.1 78.8 50 65.9 78.8 50 78.8z" fill="#ffffff" data-fill-palette-color="background"></path><polygon points="36.1,35.5 36.1,63.8 38.6,63.8 38.6,41.5 50,52.9 61.4,41.5 61.4,63.8 63.9,63.8 63.9,35.5 50,49.4 " fill="#ffffff" data-fill-palette-color="background"></polygon></svg></g></svg></g></svg></g></svg></g></svg></g><defs></defs></svg><rect width="395.52" height="62.69470648878875" fill="none" stroke="none" visibility="hidden"></rect></g></svg></g></svg>